<svg width="579" height="433" viewBox="0 0 579 433" fill="none" xmlns="http://www.w3.org/2000/svg">
<g clip-path="url(#clip0_129_1286)">
<path d="M442.208 324.729L401.51 306.793V291.372L416.014 291.291C418.265 291.278 420.455 290.562 422.277 289.242C424.099 287.922 425.462 286.065 426.174 283.932L436.363 253.396C436.902 251.778 437.05 250.056 436.792 248.37C436.535 246.684 435.88 245.083 434.882 243.7C433.884 242.317 432.571 241.19 431.051 240.413C429.532 239.636 427.849 239.231 426.142 239.231H401.51V224.881H432.433C434.871 224.881 437.237 224.055 439.144 222.539C441.051 221.022 442.386 218.904 442.932 216.53L449.949 186.038C450.312 184.461 450.314 182.822 449.956 181.244C449.597 179.666 448.887 178.189 447.878 176.923C446.869 175.657 445.587 174.635 444.128 173.932C442.669 173.23 441.07 172.865 439.45 172.865H401.51V169.277C401.51 168.335 401.324 167.402 400.963 166.532C400.602 165.661 400.073 164.87 399.407 164.204C398.74 163.538 397.948 163.009 397.077 162.649C396.205 162.288 395.271 162.103 394.328 162.103C393.385 162.103 392.451 162.288 391.58 162.649C390.708 163.009 389.917 163.538 389.25 164.204C388.583 164.87 388.054 165.661 387.693 166.532C387.332 167.402 387.146 168.335 387.146 169.277V172.865H132.785V169.277C132.785 167.374 132.029 165.549 130.682 164.204C129.335 162.858 127.508 162.103 125.603 162.103C123.699 162.103 121.872 162.858 120.525 164.204C119.178 165.549 118.422 167.374 118.422 169.277V172.865H88.2618C86.6419 172.865 85.0429 173.23 83.5838 173.932C82.1246 174.635 80.8429 175.657 79.8339 176.923C78.825 178.189 78.1148 179.666 77.7562 181.244C77.3976 182.822 77.3998 184.461 77.7627 186.038L84.7795 216.53C85.3257 218.904 86.6614 221.022 88.5684 222.539C90.4754 224.055 92.841 224.881 95.2786 224.881H118.422V239.231H101.569C99.8713 239.231 98.1975 239.632 96.6842 240.401C95.171 241.17 93.8611 242.285 92.8614 243.656C91.8618 245.027 91.2007 246.615 90.932 248.29C90.6633 249.965 90.7947 251.679 91.3154 253.293L101.715 285.536C102.417 287.713 103.796 289.61 105.65 290.952C107.505 292.293 109.739 293.01 112.029 292.997L118.422 292.961V306.793L85.5042 324.729C84.0895 324.729 82.6887 325.008 81.3816 325.549C80.0746 326.089 78.887 326.882 77.8866 327.882C76.8863 328.881 76.0928 330.067 75.5514 331.373C75.01 332.679 74.7313 334.078 74.7313 335.491C74.7313 338.346 75.8663 341.083 77.8866 343.101C79.907 345.12 82.6471 346.254 85.5042 346.254H118.422V425.175C118.422 427.078 119.178 428.903 120.525 430.249C121.872 431.594 123.699 432.35 125.603 432.35C127.508 432.35 129.335 431.594 130.682 430.249C132.029 428.903 132.785 427.078 132.785 425.175V346.254H387.146V425.175C387.146 427.078 387.903 428.903 389.25 430.249C390.597 431.594 392.423 432.35 394.328 432.35C396.233 432.35 398.06 431.594 399.407 430.249C400.753 428.903 401.51 427.078 401.51 425.175V346.254H442.208C445.065 346.254 447.805 345.12 449.825 343.101C451.846 341.083 452.981 338.346 452.981 335.491C452.981 334.078 452.702 332.679 452.161 331.373C451.619 330.067 450.826 328.881 449.825 327.882C448.825 326.882 447.637 326.089 446.33 325.549C445.023 325.008 443.622 324.729 442.208 324.729ZM132.785 224.881H387.146V239.231H132.785V224.881ZM132.785 306.793V292.88L387.146 291.453V306.793H132.785Z" fill="#F09E54"/>
<path d="M412.78 324.678C417.254 288.739 439.55 253.329 473.859 241.633C460.328 278.624 460.331 319.205 473.867 356.194C479.139 370.441 486.488 385.738 481.529 400.096C478.444 409.03 470.895 415.865 462.458 420.139C454.02 424.413 444.656 426.45 435.409 428.446L433.589 429.95C418.909 396.836 408.306 360.617 412.78 324.678Z" fill="#398645"/>
<path d="M474.2 242.313C454.423 264.436 441.593 293.014 438.708 322.58C438.085 328.972 438.009 335.51 439.408 341.81C440.807 348.113 443.854 353.403 448.178 358.149C452.13 362.487 456.677 366.468 459.505 371.691C462.486 377.196 462.601 383.451 460.56 389.299C458.063 396.453 453.141 402.285 448.13 407.821C442.566 413.967 436.689 420.264 434.324 428.412C434.037 429.4 432.521 428.898 432.807 427.912C436.922 413.735 450.698 405.682 457.268 392.912C460.333 386.954 461.62 380.037 458.746 373.747C456.233 368.247 451.548 364.138 447.508 359.78C443.266 355.203 440.013 350.182 438.337 344.123C436.623 337.926 436.443 331.37 436.9 324.991C438.045 310.531 441.459 296.342 447.016 282.942C453.274 267.613 462.11 253.467 473.142 241.116C473.826 240.351 474.878 241.553 474.2 242.313Z" fill="white"/>
<path d="M439.139 312.92C434.201 311.723 429.851 308.811 426.864 304.705C423.878 300.599 422.449 295.566 422.834 290.505C422.916 289.482 424.512 289.56 424.431 290.585C424.063 295.297 425.394 299.985 428.183 303.803C430.972 307.621 435.035 310.317 439.64 311.404C440.64 311.642 440.133 313.156 439.139 312.92Z" fill="white"/>
<path d="M445.883 356.212C454.801 350.893 461.384 342.412 464.319 332.46C464.609 331.474 466.126 331.975 465.836 332.96C462.762 343.311 455.894 352.123 446.602 357.638C445.716 358.163 445.002 356.735 445.883 356.212Z" fill="white"/>
<path d="M454.756 269.126C456.57 269.986 458.569 270.384 460.575 270.282C462.58 270.181 464.529 269.583 466.246 268.543C467.125 268.007 467.838 269.436 466.964 269.968C465.062 271.109 462.909 271.766 460.693 271.883C458.478 272.001 456.268 271.574 454.255 270.641C454.058 270.569 453.896 270.425 453.801 270.238C453.707 270.05 453.688 269.834 453.747 269.633C453.814 269.433 453.958 269.267 454.147 269.172C454.336 269.077 454.555 269.06 454.756 269.126Z" fill="white"/>
<path d="M578.439 305.825C577.9 306.175 577.361 306.525 576.821 306.889C569.595 311.636 562.768 316.961 556.405 322.812C555.906 323.257 555.407 323.715 554.922 324.173C539.744 338.433 527.348 355.384 518.364 374.165C514.796 381.642 511.803 389.378 509.41 397.309C506.106 408.261 503.396 420.399 496.856 429.357C496.184 430.299 495.454 431.199 494.671 432.051H435.566C435.432 431.984 435.297 431.93 435.162 431.863L432.802 431.971C432.897 431.553 433.004 431.122 433.099 430.704C433.153 430.462 433.22 430.219 433.274 429.977C433.314 429.815 433.355 429.653 433.382 429.505C433.395 429.451 433.409 429.398 433.422 429.357C433.449 429.209 433.49 429.074 433.517 428.939C434.11 426.528 434.722 424.117 435.351 421.705C435.351 421.692 435.351 421.692 435.364 421.678C440.206 403.317 446.624 385.198 455.592 368.628C455.862 368.13 456.131 367.618 456.428 367.119C460.511 359.673 465.197 352.572 470.439 345.889C473.321 342.238 476.386 338.735 479.622 335.394C488.001 326.778 497.685 319.531 508.318 313.921C529.516 302.74 554.059 298.456 576.714 305.286C577.293 305.461 577.86 305.636 578.439 305.825Z" fill="#95C75B"/>
<path d="M578.307 306.574C549.183 312.343 521.715 327.445 501.594 349.316C497.244 354.045 493.243 359.22 490.563 365.091C487.881 370.966 487.126 377.022 487.718 383.411C488.259 389.253 489.49 395.166 488.601 401.037C487.663 407.225 483.985 412.289 478.831 415.73C472.525 419.941 465.081 421.637 457.744 423.043C449.597 424.604 441.11 426.097 434.31 431.181C433.486 431.796 432.578 430.483 433.4 429.868C445.23 421.024 461.083 422.88 474.025 416.636C480.063 413.722 485.26 408.973 486.756 402.222C488.064 396.319 486.8 390.221 486.2 384.311C485.571 378.105 486 372.14 488.314 366.294C490.68 360.315 494.487 354.973 498.697 350.154C508.326 339.297 519.603 330.021 532.116 322.664C546.35 314.189 561.931 308.209 578.184 304.982C579.19 304.783 579.306 306.376 578.307 306.574Z" fill="white"/>
<path d="M507.759 341.862C504.538 337.937 502.82 332.995 502.91 327.921C503 322.846 504.892 317.968 508.25 314.159C508.932 313.39 510.159 314.413 509.476 315.183C506.343 318.724 504.581 323.268 504.507 327.993C504.432 332.719 506.052 337.316 509.072 340.953C509.728 341.745 508.411 342.649 507.759 341.862Z" fill="white"/>
<path d="M487.053 380.486C497.379 381.602 507.746 378.789 516.088 372.609C516.914 371.996 517.823 373.309 516.998 373.921C508.305 380.337 497.51 383.241 486.768 382.056C485.744 381.942 486.035 380.372 487.053 380.486Z" fill="white"/>
<path d="M546.623 316.288C547.552 318.066 548.909 319.586 550.571 320.711C552.234 321.836 554.15 322.531 556.148 322.734C557.172 322.834 556.88 324.404 555.862 324.304C553.656 324.07 551.541 323.3 549.701 322.061C547.861 320.822 546.354 319.152 545.309 317.197C545.195 317.021 545.153 316.808 545.19 316.602C545.228 316.396 545.342 316.211 545.511 316.086C545.685 315.967 545.9 315.921 546.108 315.959C546.316 315.997 546.501 316.115 546.623 316.288Z" fill="white"/>
<path d="M13.8743 356.591C17.0185 331.334 32.6874 306.448 56.7996 298.229C47.2904 324.226 47.2925 352.745 56.8054 378.74C60.5105 388.752 65.675 399.503 62.1899 409.593C60.0215 415.872 54.7167 420.676 48.7871 423.68C42.8571 426.683 36.276 428.115 29.7774 429.518L28.4984 430.575C18.1818 407.303 10.7302 381.849 13.8743 356.591Z" fill="#95C75B"/>
<path d="M57.0388 298.706C42.9971 314.424 34.2697 334.162 32.0963 355.117C31.6581 359.609 31.6049 364.204 32.5878 368.632C33.5791 372.94 35.7073 376.905 38.7511 380.114C41.5291 383.163 44.7241 385.96 46.7117 389.631C48.8068 393.5 48.8873 397.896 47.453 402.005C45.6981 407.034 42.2394 411.132 38.7175 415.023C34.8072 419.342 30.6771 423.767 29.015 429.494C28.8136 430.188 27.7476 429.835 27.9487 429.142C30.8406 419.179 40.5223 413.519 45.1395 404.545C47.294 400.358 48.1983 395.496 46.1785 391.076C44.4123 387.211 41.12 384.323 38.2806 381.26C35.2992 378.044 33.0131 374.515 31.8355 370.257C30.6308 365.901 30.5043 361.295 30.8257 356.811C31.6303 346.649 34.0294 336.677 37.9349 327.26C42.3325 316.487 48.5424 306.546 56.2958 297.865C56.7759 297.328 57.5158 298.173 57.0388 298.706Z" fill="white"/>
<path d="M32.3986 348.328C28.9288 347.487 25.8714 345.44 23.7725 342.555C21.6735 339.669 20.6697 336.132 20.9402 332.575C20.9974 331.856 22.1193 331.911 22.062 332.631C21.804 335.943 22.7394 339.237 24.6994 341.921C26.6594 344.604 29.515 346.498 32.7507 347.263C33.4536 347.43 33.0975 348.494 32.3986 348.328Z" fill="white"/>
<path d="M37.1388 378.753C43.4056 375.015 48.0319 369.055 50.0951 362.06C50.2989 361.367 51.3649 361.72 51.1613 362.412C49.0008 369.687 44.1738 375.88 37.6438 379.755C37.0211 380.124 36.5195 379.12 37.1388 378.753Z" fill="white"/>
<path d="M43.3743 317.55C44.6489 318.155 46.054 318.434 47.4634 318.363C48.8728 318.291 50.2423 317.871 51.4491 317.14C52.0667 316.764 52.5677 317.768 51.9541 318.142C50.6171 318.944 49.104 319.406 47.547 319.488C45.99 319.571 44.4365 319.271 43.0222 318.615C42.8837 318.565 42.7697 318.463 42.7034 318.331C42.637 318.2 42.6234 318.048 42.6651 317.907C42.7124 317.766 42.8135 317.649 42.9462 317.583C43.079 317.516 43.2328 317.504 43.3743 317.55Z" fill="white"/>
<path d="M130.297 343.342C129.918 343.588 129.539 343.834 129.159 344.089C124.081 347.425 119.283 351.168 114.812 355.28C114.461 355.592 114.11 355.914 113.769 356.236C103.102 366.258 94.3905 378.171 88.077 391.37C85.5695 396.624 83.4658 402.062 81.7842 407.635C79.4621 415.332 77.5575 423.862 72.961 430.158C72.4889 430.82 71.9761 431.452 71.4257 432.051H29.888C29.7936 432.004 29.6988 431.966 29.6039 431.919L27.9454 431.995C28.0121 431.701 28.0875 431.398 28.1541 431.105C28.1921 430.934 28.2393 430.764 28.2772 430.593C28.3054 430.48 28.3341 430.366 28.3531 430.262C28.3624 430.224 28.3721 430.186 28.3813 430.158C28.4003 430.054 28.429 429.959 28.448 429.864C28.8649 428.17 29.2945 426.475 29.7367 424.78C29.7367 424.771 29.7367 424.771 29.746 424.761C33.1485 411.857 37.6593 399.124 43.9614 387.479C44.1512 387.128 44.3404 386.769 44.5491 386.418C47.419 381.185 50.7122 376.195 54.3958 371.498C56.4212 368.932 58.5752 366.471 60.8497 364.123C66.7383 358.067 73.5438 352.974 81.0165 349.031C95.9145 341.174 113.162 338.163 129.084 342.963C129.491 343.086 129.89 343.209 130.297 343.342Z" fill="#398645"/>
<path d="M130.203 343.868C109.519 347.972 90.6553 358.483 76.2911 373.907C73.2339 377.23 70.4221 380.867 68.5384 384.993C66.7332 389.03 66.043 393.475 66.5394 397.868C66.9198 401.974 67.7848 406.129 67.1597 410.255C66.5008 414.604 63.9157 418.163 60.2938 420.581C55.8622 423.541 50.6305 424.733 45.4738 425.721C39.7483 426.818 33.7839 427.867 29.0053 431.44C28.4263 431.872 27.7878 430.95 28.3659 430.517C36.6798 424.301 47.8209 425.606 56.9159 421.218C61.1598 419.17 64.8117 415.832 65.863 411.088C66.7824 406.94 65.894 402.654 65.4728 398.5C65.0306 394.139 65.332 389.947 66.9579 385.839C68.6212 381.636 71.2966 377.882 74.2554 374.495C81.0221 366.866 88.9475 360.346 97.7414 355.176C107.745 349.22 118.695 345.017 130.117 342.75C130.824 342.61 130.906 343.729 130.203 343.868Z" fill="white"/>
<path d="M80.6237 368.668C78.3605 365.909 77.1526 362.437 77.2158 358.87C77.279 355.304 78.6091 351.876 80.9687 349.199C81.448 348.659 82.3105 349.377 81.8306 349.918C79.6288 352.407 78.3901 355.6 78.338 358.921C78.286 362.243 79.424 365.473 81.5468 368.03C82.0074 368.586 81.0817 369.221 80.6237 368.668Z" fill="white"/>
<path d="M66.072 395.812C73.3286 396.597 80.6147 394.62 86.4773 390.276C87.0578 389.846 87.6965 390.768 87.1167 391.199C81.0075 395.707 73.421 397.749 65.8714 396.916C65.1519 396.836 65.3564 395.733 66.072 395.812Z" fill="white"/>
<path d="M107.936 350.695C108.589 351.945 109.543 353.013 110.711 353.804C111.88 354.594 113.226 355.083 114.63 355.225C115.351 355.296 115.145 356.399 114.43 356.328C112.879 356.164 111.393 355.623 110.1 354.752C108.807 353.882 107.747 352.708 107.013 351.334C106.933 351.21 106.903 351.06 106.93 350.916C106.956 350.771 107.037 350.641 107.155 350.553C107.278 350.469 107.429 350.437 107.575 350.464C107.721 350.49 107.851 350.573 107.936 350.695Z" fill="white"/>
<path d="M220.974 418.71L210.268 421.804L193.225 382.021L209.027 377.454L220.974 418.71Z" fill="#9E616A"/>
<path d="M246.58 274.535L235.534 286.305C235.534 286.305 177.359 312.053 177.359 325.294C177.359 338.536 191.35 395.917 197.242 400.331C200.79 403.004 199.186 405.883 200.946 409.96L221.542 402.537C221.542 402.537 220.07 398.124 221.542 395.917C223.015 393.71 221.542 392.238 221.542 392.238C221.542 392.238 219.333 392.974 220.07 390.767C220.806 388.56 220.806 387.825 220.07 387.089C219.333 386.353 217.124 379.732 217.124 379.732C217.124 379.732 217.86 353.249 207.551 343.686C207.551 343.686 255.416 329.708 261.307 320.145C267.199 310.581 268.671 276.006 268.671 276.006L246.58 274.535Z" fill="#2F2E41"/>
<path d="M225.339 424.808L189.662 432.163L189.569 431.713C188.809 428.034 189.543 424.204 191.61 421.065C193.676 417.927 196.906 415.737 200.589 414.977L200.59 414.977L206.086 408.694L219.266 411.127L222.38 410.484L225.339 424.808Z" fill="#2F2E41"/>
<path d="M259.923 374.028L246.26 383.179L274.606 415.9L283.864 409.7L259.923 374.028Z" fill="#9E616A"/>
<path d="M280.332 254.257C273.034 238.885 295.279 284.339 292.334 298.416C290.034 309.408 247.078 344.405 247.078 344.405C260.021 349.914 268.309 375.081 268.309 375.081C268.309 375.081 272.633 380.563 273.575 381.006C274.517 381.449 274.767 382.141 274.822 384.466C274.878 386.792 276.707 385.352 276.707 385.352C276.707 385.352 278.592 386.238 277.954 388.813C277.317 391.388 280.2 395.042 280.2 395.042L264.278 409.871C261.239 406.631 260.832 402.504 256.587 401.19C249.548 399.031 216.925 349.778 212.435 337.319C207.945 324.86 253.949 280.947 253.949 280.947L257.855 259.213L280.332 254.257Z" fill="#2F2E41"/>
<path d="M288.53 420.673L254.255 433L254.099 432.567C252.825 429.032 253.009 425.137 254.61 421.738C256.211 418.339 259.098 415.714 262.636 414.441L262.637 414.441L267.188 407.444L280.579 407.988L283.571 406.912L288.53 420.673Z" fill="#2F2E41"/>
<path d="M254.212 180.827L244.29 188.374L217.934 195.347C217.934 195.347 227.378 261.559 222.921 266.012C218.464 270.465 222.483 270.584 221.588 276.369C220.692 282.153 218.515 294.01 218.515 294.01C248.602 309.92 274.539 310.347 295.373 291.729C295.64 290.578 295.505 289.37 294.99 288.306C294.475 287.241 293.611 286.385 292.542 285.878C288.664 283.823 296.117 274.229 292.948 272.625C289.779 271.021 294.236 257.106 294.236 257.106L303.895 211.55L278.203 191.468L274.296 182.063L254.212 180.827Z" fill="#304BC9"/>
<path d="M266.592 239.993C268.488 239.993 270.024 238.458 270.024 236.564C270.024 234.67 268.488 233.135 266.592 233.135C264.696 233.135 263.159 234.67 263.159 236.564C263.159 238.458 264.696 239.993 266.592 239.993Z" fill="#F2F2F2"/>
<path d="M264.369 176.626C275.208 176.626 283.994 167.849 283.994 157.021C283.994 146.193 275.208 137.415 264.369 137.415C253.53 137.415 244.743 146.193 244.743 157.021C244.743 167.849 253.53 176.626 264.369 176.626Z" fill="#9E616A"/>
<path opacity="0.1" d="M292.948 233.829L296.191 236.259L297.813 224.917L292.948 233.829Z" fill="black"/>
<path d="M219.489 195.283C219.489 195.283 215.434 194.472 213.001 201.764C210.568 209.055 198.356 247.45 198.356 252.311C198.356 257.172 257.201 267.769 257.201 267.769L251.421 247.511L224.69 239.157L219.489 195.283Z" fill="#5D82E3"/>
<path d="M259.778 264.765C265.009 264.765 269.25 260.529 269.25 255.303C269.25 250.078 265.009 245.841 259.778 245.841C254.547 245.841 250.307 250.078 250.307 255.303C250.307 260.529 254.547 264.765 259.778 264.765Z" fill="#9E616A"/>
<path opacity="0.1" d="M226.432 229.516L227.173 239.551L250.703 251.888L229.775 237.865L226.432 229.516Z" fill="black"/>
<path d="M281.798 225.565H281.493V217.212C281.493 216.577 281.368 215.948 281.125 215.362C280.882 214.775 280.525 214.242 280.076 213.793C279.626 213.344 279.093 212.988 278.506 212.745C277.919 212.502 277.289 212.377 276.654 212.377H258.938C258.302 212.377 257.673 212.502 257.086 212.745C256.499 212.988 255.965 213.344 255.516 213.793C255.066 214.242 254.71 214.775 254.467 215.362C254.223 215.948 254.098 216.577 254.098 217.212V263.039C254.098 263.674 254.223 264.303 254.467 264.889C254.71 265.476 255.066 266.009 255.516 266.458C255.965 266.907 256.499 267.263 257.086 267.506C257.673 267.749 258.302 267.874 258.938 267.874H276.654C277.289 267.874 277.918 267.749 278.506 267.506C279.093 267.263 279.626 266.907 280.076 266.458C280.525 266.009 280.882 265.476 281.125 264.889C281.368 264.303 281.493 263.674 281.493 263.039V231.511H281.798V225.565Z" fill="#F0F0F0"/>
<path d="M303.895 211.55C303.895 211.55 306.328 213.17 307.95 220.461C309.572 227.753 320.115 255.297 316.06 261.778C312.005 268.259 310.808 275.177 297.022 265.455L277.945 248.006L291.731 235.044L297.408 239.095L303.895 211.55Z" fill="#5D82E3"/>
<path d="M268.012 232.802C270.252 232.802 272.067 230.989 272.067 228.752C272.067 226.514 270.252 224.701 268.012 224.701C265.773 224.701 263.957 226.514 263.957 228.752C263.957 230.989 265.773 232.802 268.012 232.802Z" fill="#6C63FF"/>
<path d="M279.75 247.088C284.981 247.088 289.222 242.852 289.222 237.626C289.222 232.4 284.981 228.164 279.75 228.164C274.519 228.164 270.279 232.4 270.279 237.626C270.279 242.852 274.519 247.088 279.75 247.088Z" fill="#9E616A"/>
<path opacity="0.1" d="M223.162 261.196L252.386 266.662L223.933 267.753L223.162 261.196Z" fill="black"/>
<path d="M281.648 144.069C281.648 144.069 286.758 134.31 275.516 133.423C275.516 133.423 265.933 124.738 256.164 131.836C256.164 131.836 250.836 131.836 247.923 137.859C247.923 137.859 243.732 136.271 242.811 140.52C242.811 140.52 239.745 149.392 242.811 157.376C245.878 165.36 246.896 166.247 246.896 166.247C246.896 166.247 244.745 156.339 257.009 155.452C269.274 154.565 280.525 146.889 281.548 156.648C282.57 166.406 283.693 161.998 283.693 161.998C283.693 161.998 293.401 148.061 281.648 144.069Z" fill="#2F2E41"/>
<path d="M472.261 123.014H313.385C310.949 123.014 308.613 123.981 306.891 125.701C305.168 127.422 304.201 129.756 304.201 132.189V170.36C304.201 172.794 305.168 175.127 306.891 176.848C308.613 178.569 310.949 179.535 313.385 179.535H315.717V186.432C315.717 186.85 315.841 187.259 316.074 187.607C316.306 187.955 316.637 188.226 317.024 188.386C317.411 188.546 317.837 188.588 318.248 188.507C318.659 188.425 319.036 188.224 319.332 187.928L327.733 179.535H472.261C474.697 179.535 477.033 178.569 478.755 176.848C480.478 175.127 481.445 172.794 481.445 170.36V132.189C481.445 130.984 481.208 129.791 480.746 128.678C480.285 127.565 479.608 126.553 478.755 125.701C477.902 124.849 476.89 124.174 475.776 123.713C474.662 123.251 473.467 123.014 472.261 123.014Z" fill="#3F3D56"/>
<path d="M472.261 174.88H313.385C312.186 174.878 311.036 174.402 310.188 173.555C309.34 172.707 308.863 171.559 308.861 170.361V132.189C308.863 130.991 309.34 129.842 310.188 128.995C311.036 128.148 312.186 127.671 313.385 127.67H434.052C445.381 127.683 456.243 132.185 464.254 140.188C472.266 148.191 476.772 159.043 476.785 170.361C476.783 171.559 476.306 172.707 475.458 173.555C474.61 174.402 473.461 174.878 472.261 174.88Z" fill="white"/>
<path d="M426.943 136.019H359.036C357.602 136.019 356.44 137.181 356.44 138.613V139.427C356.44 140.86 357.602 142.021 359.036 142.021H426.943C428.378 142.021 429.54 140.86 429.54 139.427V138.613C429.54 137.181 428.378 136.019 426.943 136.019Z" fill="#A0F2A7"/>
<path d="M441.213 148.023H344.767C343.333 148.023 342.17 149.185 342.17 150.618V151.431C342.17 152.864 343.333 154.026 344.767 154.026H441.213C442.647 154.026 443.81 152.864 443.81 151.431V150.618C443.81 149.185 442.647 148.023 441.213 148.023Z" fill="#E6E6E6"/>
<path d="M441.213 160.028H344.767C343.333 160.028 342.17 161.19 342.17 162.622V163.436C342.17 164.869 343.333 166.03 344.767 166.03H441.213C442.647 166.03 443.81 164.869 443.81 163.436V162.622C443.81 161.19 442.647 160.028 441.213 160.028Z" fill="#E6E6E6"/>
<path d="M571.842 0H448.003C447.063 -7.85163e-07 446.132 0.184972 445.264 0.544358C444.395 0.903745 443.606 1.43051 442.942 2.09457C442.277 2.75863 441.75 3.54698 441.39 4.41462C441.03 5.28226 440.845 6.21219 440.845 7.15131V36.9046C440.845 37.8438 441.03 38.7737 441.39 39.6413C441.75 40.509 442.277 41.2973 442.942 41.9614C443.606 42.6255 444.395 43.1522 445.264 43.5116C446.132 43.871 447.063 44.056 448.003 44.056H449.821V49.4314C449.821 49.7576 449.918 50.0765 450.099 50.3477C450.281 50.6189 450.539 50.8303 450.84 50.9551C451.142 51.0799 451.474 51.1126 451.794 51.0489C452.114 50.9853 452.408 50.8282 452.639 50.5976L459.187 44.056H571.842C572.782 44.056 573.712 43.871 574.581 43.5116C575.449 43.1522 576.239 42.6255 576.903 41.9614C577.568 41.2973 578.095 40.509 578.455 39.6413C578.815 38.7737 579 37.8438 579 36.9046V7.15131C579 6.21219 578.815 5.28226 578.455 4.41462C578.095 3.54698 577.568 2.75863 576.903 2.09457C576.239 1.43051 575.449 0.903745 574.581 0.544358C573.712 0.184972 572.782 -7.85163e-07 571.842 0Z" fill="#3F3D56"/>
<path d="M571.841 40.4271H448.003C447.069 40.426 446.172 40.0546 445.511 39.3943C444.85 38.734 444.479 37.8387 444.478 36.9049V7.15137C444.479 6.21754 444.85 5.32225 445.511 4.66193C446.172 4.00161 447.069 3.63019 448.003 3.62915H542.059C550.89 3.63919 559.356 7.14826 565.6 13.3865C571.845 19.6247 575.357 28.0827 575.367 36.9049C575.366 37.8387 574.994 38.734 574.333 39.3943C573.672 40.0546 572.776 40.426 571.841 40.4271Z" fill="white"/>
<path d="M536.201 10.1367H483.905C482.611 10.1367 481.563 11.184 481.563 12.476V12.476C481.563 13.7679 482.611 14.8152 483.905 14.8152H536.201C537.494 14.8152 538.542 13.7679 538.542 12.476C538.542 11.184 537.494 10.1367 536.201 10.1367Z" fill="#F2F2F2"/>
<path d="M547.323 19.4939H472.782C471.489 19.4939 470.44 20.5412 470.44 21.8331V21.8332C470.44 23.1251 471.489 24.1724 472.782 24.1724H547.323C548.616 24.1724 549.665 23.1251 549.665 21.8331C549.665 20.5412 548.616 19.4939 547.323 19.4939Z" fill="#F2F2F2"/>
<path d="M547.323 28.8508H472.782C471.489 28.8508 470.44 29.8981 470.44 31.1901V31.1901C470.44 32.482 471.489 33.5293 472.782 33.5293H547.323C548.616 33.5293 549.665 32.482 549.665 31.1901C549.665 29.8981 548.616 28.8508 547.323 28.8508Z" fill="#A0F2A7"/>
<path d="M294.809 49.0273H418.647C419.587 49.0273 420.518 49.2123 421.386 49.5717C422.255 49.9311 423.044 50.4579 423.709 51.1219C424.374 51.786 424.901 52.5743 425.261 53.442C425.62 54.3096 425.806 55.2395 425.806 56.1786V85.932C425.806 86.8711 425.62 87.801 425.261 88.6687C424.901 89.5363 424.374 90.3247 423.709 90.9887C423.044 91.6528 422.255 92.1796 421.386 92.5389C420.518 92.8983 419.587 93.0833 418.647 93.0833H416.829V98.4587C416.829 98.7849 416.733 99.1038 416.551 99.375C416.37 99.6462 416.112 99.8576 415.81 99.9824C415.509 100.107 415.177 100.14 414.856 100.076C414.536 100.013 414.242 99.8555 414.011 99.6249L407.463 93.0833H294.809C293.869 93.0833 292.938 92.8983 292.069 92.5389C291.201 92.1796 290.412 91.6528 289.747 90.9887C289.082 90.3247 288.555 89.5363 288.195 88.6687C287.836 87.801 287.65 86.8711 287.65 85.932V56.1786C287.65 55.2395 287.836 54.3096 288.195 53.442C288.555 52.5743 289.082 51.786 289.747 51.1219C290.412 50.4579 291.201 49.9311 292.069 49.5717C292.938 49.2123 293.869 49.0273 294.809 49.0273Z" fill="#3F3D56"/>
<path d="M291.283 85.932C291.293 77.1098 294.806 68.6519 301.05 62.4136C307.294 56.1754 315.761 52.6663 324.592 52.6562H418.647C419.582 52.6573 420.478 53.0287 421.139 53.689C421.8 54.3493 422.172 55.2446 422.173 56.1784V85.9319C422.172 86.8657 421.8 87.761 421.139 88.4213C420.478 89.0816 419.582 89.4531 418.647 89.4541H294.809C293.874 89.4531 292.978 89.0817 292.317 88.4214C291.656 87.761 291.284 86.8658 291.283 85.932Z" fill="white"/>
<path d="M330.45 63.8425L382.746 63.8425C384.039 63.8425 385.087 62.7952 385.087 61.5033C385.087 60.2113 384.039 59.164 382.746 59.164L330.45 59.164C329.157 59.164 328.108 60.2113 328.108 61.5033C328.108 62.7952 329.157 63.8425 330.45 63.8425Z" fill="#F2F2F2"/>
<path d="M319.327 73.1995L393.869 73.1995C395.162 73.1995 396.21 72.1522 396.21 70.8602V70.8602C396.21 69.5683 395.162 68.521 393.869 68.521L319.327 68.521C318.034 68.521 316.986 69.5683 316.986 70.8602C316.986 72.1522 318.034 73.1995 319.327 73.1995Z" fill="#A0F2A7"/>
<path d="M319.327 82.5566L393.869 82.5566C395.162 82.5566 396.21 81.5093 396.21 80.2174C396.21 78.9255 395.162 77.8781 393.869 77.8781L319.327 77.8781C318.034 77.8781 316.986 78.9255 316.986 80.2174C316.986 81.5093 318.034 82.5566 319.327 82.5566Z" fill="#F2F2F2"/>
<path d="M514.996 432.956H0.712598C0.5236 432.956 0.342346 432.881 0.208704 432.748C0.0750623 432.614 -1.52588e-05 432.433 -1.52588e-05 432.244C-1.52588e-05 432.056 0.0750623 431.874 0.208704 431.741C0.342346 431.607 0.5236 431.532 0.712598 431.532H514.996C515.185 431.532 515.367 431.607 515.5 431.741C515.634 431.874 515.709 432.056 515.709 432.244C515.709 432.433 515.634 432.614 515.5 432.748C515.367 432.881 515.185 432.956 514.996 432.956Z" fill="#CCCCCC"/>
</g>
<defs>
<clipPath id="clip0_129_1286">
<rect width="579" height="433" fill="white"/>
</clipPath>
</defs>
</svg>
