<svg width="479" height="451" viewBox="0 0 479 451" fill="none" xmlns="http://www.w3.org/2000/svg">
<g clip-path="url(#clip0_129_1250)">
<path d="M392.991 328.4H384.648V318.918C384.648 318.717 384.568 318.524 384.425 318.382C384.283 318.239 384.09 318.159 383.889 318.159C383.688 318.159 383.495 318.239 383.353 318.382C383.21 318.524 383.13 318.717 383.13 318.918V328.4H374.787C374.585 328.4 374.393 328.48 374.25 328.622C374.108 328.764 374.028 328.957 374.028 329.158C374.028 329.359 374.108 329.552 374.25 329.694C374.393 329.837 374.585 329.917 374.787 329.917H383.13V339.398C383.13 339.6 383.21 339.792 383.353 339.935C383.495 340.077 383.688 340.157 383.889 340.157C384.09 340.157 384.283 340.077 384.425 339.935C384.568 339.792 384.648 339.6 384.648 339.398V329.917H392.991C393.193 329.917 393.385 329.837 393.528 329.694C393.67 329.552 393.75 329.359 393.75 329.158C393.75 328.957 393.67 328.764 393.528 328.622C393.385 328.48 393.193 328.4 392.991 328.4Z" fill="white"/>
<path d="M459.837 441.298L451.166 441.297L447.042 407.849L459.84 407.85L459.837 441.298Z" fill="#FFB8B8"/>
<path d="M444.972 438.819H461.696V449.349H434.442C434.442 447.966 434.714 446.597 435.243 445.319C435.772 444.042 436.548 442.881 437.526 441.903C438.504 440.925 439.664 440.15 440.942 439.621C442.22 439.091 443.589 438.819 444.972 438.819Z" fill="#2F2E41"/>
<path d="M425.324 441.298L416.653 441.297L412.529 407.849L425.327 407.85L425.324 441.298Z" fill="#FFB8B8"/>
<path d="M410.458 438.819H427.182V449.349H399.928C399.928 447.966 400.201 446.597 400.73 445.319C401.259 444.042 402.035 442.881 403.013 441.903C403.99 440.925 405.151 440.15 406.429 439.621C407.706 439.091 409.076 438.819 410.458 438.819Z" fill="#2F2E41"/>
<path d="M466.518 325.659C465.82 324.889 465.299 323.974 464.993 322.98C464.687 321.987 464.602 320.938 464.745 319.908C464.888 318.878 465.255 317.892 465.82 317.019C466.386 316.146 467.135 315.408 468.017 314.856L465.331 298.826L474.674 294.818L478.149 317.509C478.978 319.051 479.212 320.844 478.807 322.547C478.403 324.25 477.387 325.746 475.954 326.751C474.52 327.755 472.767 328.199 471.028 327.998C469.289 327.797 467.684 326.965 466.518 325.659Z" fill="#FFB8B8"/>
<path d="M393.366 318.085C394.182 317.44 394.846 316.624 395.313 315.695C395.779 314.765 396.036 313.745 396.065 312.705C396.094 311.666 395.895 310.633 395.482 309.678C395.068 308.724 394.451 307.872 393.673 307.183L398.97 291.816L390.417 286.32L383.241 308.125C382.169 309.509 381.642 311.238 381.76 312.985C381.877 314.732 382.632 316.375 383.88 317.602C385.128 318.83 386.783 319.557 388.531 319.646C390.28 319.735 392 319.18 393.366 318.085Z" fill="#FFB8B8"/>
<path d="M437.779 204.882C448.068 204.882 456.409 196.541 456.409 186.252C456.409 175.962 448.068 167.621 437.779 167.621C427.49 167.621 419.148 175.962 419.148 186.252C419.148 196.541 427.49 204.882 437.779 204.882Z" fill="#FFB8B8"/>
<path d="M392.79 306.589C392.471 306.588 392.153 306.543 391.846 306.455L386.416 304.896C385.549 304.645 384.816 304.062 384.377 303.273C383.938 302.484 383.829 301.554 384.074 300.685L395.28 261.118L410.907 222.756C412.461 218.942 415.708 216.441 419.38 216.228C421.057 216.146 422.722 216.553 424.173 217.398C425.624 218.243 426.799 219.49 427.555 220.99C428.396 222.594 428.857 224.37 428.904 226.181C428.951 227.992 428.583 229.789 427.826 231.435L410.064 270.28L395.943 304.477C395.685 305.101 395.248 305.635 394.687 306.011C394.126 306.387 393.466 306.588 392.79 306.589Z" fill="#3F3D56"/>
<path d="M448.292 201.875L437.941 202.059C436.863 202.081 435.794 201.848 434.822 201.381C433.851 200.914 433.002 200.224 432.345 199.369C431.689 198.513 431.242 197.516 431.042 196.456C430.842 195.396 430.894 194.304 431.193 193.268C431.414 192.52 431.58 191.756 431.69 190.983C431.806 190.14 431.829 189.287 431.758 188.439C431.693 187.59 431.34 186.789 430.76 186.166C430.179 185.544 429.403 185.137 428.561 185.013C427.718 184.888 426.859 185.054 426.123 185.483C425.387 185.911 424.819 186.577 424.511 187.371C422.77 187.396 419.062 186.828 417.322 186.853C413.626 177.379 421.68 164.982 430.349 160.326C439.187 155.579 450.659 160.408 454.046 170.302C458.748 170.386 462.568 175.023 463.174 180.243C463.78 185.463 461.632 190.914 458.347 194.915C455.062 198.916 450.749 201.832 448.292 201.875Z" fill="#2F2E41"/>
<path d="M414.266 438.175C413.427 438.17 412.619 437.858 411.996 437.297C411.372 436.737 410.975 435.967 410.882 435.133L407.041 306.004L455.426 309.449L455.463 309.76C466.397 401.286 462.659 432.969 462.62 433.279C462.593 433.747 462.47 434.205 462.259 434.623C462.047 435.042 461.751 435.412 461.39 435.711C461.029 436.01 460.61 436.232 460.159 436.362C459.708 436.492 459.235 436.527 458.77 436.466L448.078 436.723C447.267 436.631 446.516 436.252 445.961 435.654C445.406 435.056 445.083 434.279 445.052 433.464L435.061 339.937C434.999 339.694 434.854 339.481 434.65 339.334C434.447 339.188 434.199 339.118 433.949 339.136C433.692 339.135 433.442 339.224 433.243 339.387C433.044 339.55 432.907 339.777 432.857 340.029L428.997 433.862C429.038 434.733 428.743 435.587 428.172 436.246C427.602 436.905 426.8 437.32 425.932 437.405L414.605 438.158C414.492 438.169 414.379 438.175 414.266 438.175Z" fill="#2F2E41"/>
<path d="M434.343 321.434C434.054 321.434 433.765 321.429 433.474 321.42C419.562 321.002 408.677 310.475 405.672 307.259C405.29 306.849 405.014 306.351 404.871 305.808C404.728 305.266 404.722 304.697 404.852 304.151L412.878 270.196L410.749 240.676C410.415 236.579 410.952 232.458 412.325 228.584C413.699 224.709 415.877 221.17 418.718 218.199C421.085 215.698 423.961 213.736 427.153 212.445C430.344 211.154 433.776 210.564 437.216 210.715C450.759 211.361 461.444 223.467 461.541 238.274C461.691 261.209 461.015 262.784 460.794 263.302C454.034 279.077 457.726 301.22 459.018 307.632C459.134 308.204 459.101 308.796 458.924 309.352C458.746 309.907 458.43 310.409 458.004 310.808C450.57 317.862 442.614 321.433 434.343 321.434Z" fill="#3F3D56"/>
<path d="M469.285 312.802C468.512 312.802 467.763 312.539 467.16 312.058C466.556 311.577 466.134 310.905 465.962 310.152L457.681 274.078L446.583 232.847C446.109 231.098 446.043 229.265 446.388 227.486C446.733 225.708 447.482 224.033 448.576 222.589C449.57 221.236 450.935 220.2 452.506 219.607C454.076 219.013 455.785 218.887 457.426 219.244C461.012 220.06 463.801 223.063 464.704 227.082L473.772 267.457L478.294 308.373C478.392 309.271 478.13 310.17 477.567 310.876C477.004 311.581 476.185 312.035 475.289 312.139L469.676 312.78C469.546 312.795 469.415 312.802 469.285 312.802Z" fill="#3F3D56"/>
<path d="M23.3869 316.693C24.3695 316.019 25.1924 315.138 25.7977 314.112C26.4031 313.086 26.7761 311.94 26.8905 310.754C27.0049 309.568 26.8579 308.372 26.4599 307.249C26.0619 306.126 25.4225 305.104 24.5868 304.255L27.7477 233.698L11.6551 235.505L12.59 304.519C11.2568 306.018 10.5196 307.953 10.518 309.959C10.5164 311.965 11.2506 313.901 12.5815 315.402C13.9123 316.902 15.7474 317.862 17.7389 318.1C19.7304 318.338 21.74 317.837 23.3869 316.693Z" fill="#FFB8B8"/>
<path d="M52.7438 436.13L61.9031 437.74L70.9554 403.179L58.9546 400.802L52.7438 436.13Z" fill="#FFB8B8"/>
<path d="M78.0717 449.35L49.2863 444.29L51.2415 433.168L68.9052 436.274C70.3657 436.53 71.7614 437.072 73.0125 437.868C74.2635 438.664 75.3456 439.699 76.1967 440.914C77.0479 442.128 77.6516 443.498 77.9733 444.945C78.295 446.393 78.3284 447.89 78.0717 449.35Z" fill="#2F2E41"/>
<path d="M27.6045 440.715H36.9041L41.3278 404.845L27.603 404.846L27.6045 440.715Z" fill="#FFB8B8"/>
<path d="M54.8391 449.349L25.6123 449.35L25.6118 438.058L43.5464 438.057C46.5413 438.057 49.4136 439.247 51.5313 441.364C53.6491 443.482 54.839 446.354 54.8391 449.349Z" fill="#2F2E41"/>
<path d="M67.1641 430.892C67.019 430.893 66.874 430.884 66.7299 430.867L55.7843 429.966C55.2859 429.907 54.8047 429.748 54.3698 429.498C53.9349 429.247 53.5554 428.911 53.2545 428.51C52.9535 428.108 52.7373 427.65 52.6189 427.162C52.5006 426.675 52.4827 426.168 52.5662 425.673L62.6734 369.025L55.8439 333.015C55.7882 332.722 55.6286 332.46 55.3945 332.275C55.1605 332.091 54.8677 331.998 54.5703 332.013C54.2728 332.028 53.9907 332.149 53.7761 332.356C53.5614 332.562 53.4286 332.839 53.4022 333.136L44.8643 429.187C44.7706 430.151 44.306 431.041 43.5688 431.669C42.8315 432.297 41.8792 432.614 40.9127 432.553L30.6006 432.169C29.6969 432.105 28.8479 431.712 28.2139 431.065C27.58 430.418 27.2049 429.561 27.1596 428.656L26.4664 313.535L79.9286 306.853L83.6633 364.532L83.6485 364.593L70.7605 428.063C70.5641 428.87 70.103 429.586 69.451 430.099C68.799 430.612 67.9937 430.891 67.1641 430.892Z" fill="#2F2E41"/>
<path d="M44.0928 187.976C54.382 187.976 62.7231 179.635 62.7231 169.346C62.7231 159.057 54.382 150.716 44.0928 150.716C33.8035 150.716 25.4625 159.057 25.4625 169.346C25.4625 179.635 33.8035 187.976 44.0928 187.976Z" fill="#FFB8B8"/>
<path d="M61.6471 321.949C58.7334 321.967 55.8756 321.149 53.4118 319.594C44.3873 313.953 34.1371 316.195 28.8302 318.033C28.3036 318.218 27.7421 318.281 27.1877 318.218C26.6333 318.154 26.1004 317.967 25.6288 317.669C25.1625 317.376 24.7686 316.981 24.4764 316.515C24.1842 316.048 24.0013 315.522 23.9415 314.975L14.291 228.786C12.6738 214.345 21.3726 200.768 34.9745 196.503C35.4855 196.343 36.0051 196.191 36.5334 196.047C40.7662 194.899 45.199 194.693 49.52 195.443C53.841 196.193 57.9452 197.881 61.5437 200.388C65.2092 202.922 68.2747 206.229 70.5244 210.076C72.7741 213.923 74.1535 218.216 74.5653 222.653L82.6895 309.419C82.7448 309.981 82.669 310.548 82.468 311.075C82.267 311.603 81.9463 312.076 81.5311 312.459C78.6832 315.093 70.4174 321.949 61.6471 321.949Z" fill="#304BC9"/>
<path d="M32.2607 247.268L10.4883 244.874C9.86884 244.806 9.2713 244.605 8.73644 244.286C8.20157 243.966 7.74194 243.534 7.38882 243.021C7.0357 242.507 6.79741 241.924 6.69017 241.31C6.58294 240.696 6.60928 240.066 6.7674 239.463L12.3093 218.341C12.6757 215.173 14.2833 212.28 16.7795 210.296C19.2757 208.312 22.4567 207.399 25.6253 207.757C28.7938 208.115 31.6911 209.714 33.682 212.205C35.6729 214.696 36.5949 217.874 36.2458 221.044L37.0685 242.795C37.0919 243.418 36.9807 244.038 36.7427 244.614C36.5046 245.19 36.1452 245.708 35.689 246.132C35.2327 246.557 34.6903 246.878 34.0987 247.074C33.5071 247.27 32.8802 247.336 32.2607 247.268Z" fill="#304BC9"/>
<path d="M82.6024 313.671C83.4966 312.884 84.2074 311.911 84.6847 310.819C85.1619 309.728 85.3941 308.545 85.3647 307.354C85.3354 306.163 85.0453 304.993 84.5149 303.926C83.9844 302.86 83.2266 301.922 82.2947 301.18L76.9296 230.756L61.1609 234.306L70.4172 302.888C69.2743 304.536 68.7756 306.546 69.0158 308.538C69.2559 310.529 70.2181 312.363 71.7201 313.692C73.2221 315.021 75.1595 315.753 77.1652 315.749C79.1708 315.746 81.1054 315.006 82.6024 313.671Z" fill="#FFB8B8"/>
<path d="M55.1154 242.841C54.6589 242.417 54.2994 241.899 54.0614 241.323C53.8233 240.747 53.7124 240.127 53.736 239.504L54.5588 217.753C54.2097 214.583 55.1316 211.405 57.1225 208.914C59.1134 206.423 62.0108 204.824 65.1793 204.466C68.3478 204.108 71.5289 205.021 74.0251 207.005C76.5212 208.989 78.1288 211.882 78.4953 215.05L84.0372 236.172C84.1953 236.775 84.2216 237.405 84.1144 238.019C84.0071 238.633 83.7689 239.216 83.4157 239.73C83.0626 240.243 82.603 240.675 82.0681 240.995C81.5333 241.314 80.9357 241.515 80.3162 241.583L58.5438 243.977C57.9243 244.046 57.2972 243.98 56.7056 243.784C56.1139 243.588 55.5715 243.266 55.1154 242.841Z" fill="#304BC9"/>
<path d="M42.9847 188.678C42.6536 188.678 42.3236 188.64 42.0012 188.564L41.9066 188.541C25.5265 186.035 21.9066 176.547 21.1119 172.585C20.2895 168.483 21.226 164.523 23.3422 162.985C22.1884 159.342 22.3736 156.112 23.8938 153.38C26.5452 148.617 32.2992 147.006 33.0709 146.809C37.6661 143.419 43.1642 145.682 44.1646 146.141C53.0535 142.852 56.4509 145.589 57.0654 146.201C61.0388 146.914 63.4607 148.449 64.2648 150.764C65.775 155.111 60.999 160.518 60.7949 160.746L60.689 160.865L53.5738 161.203C52.8987 161.236 52.2378 161.409 51.6342 161.714C51.0305 162.018 50.4975 162.445 50.0697 162.968C49.6419 163.492 49.3289 164.099 49.151 164.751C48.973 165.403 48.9342 166.086 49.0369 166.754C49.2295 167.616 49.4727 168.465 49.7654 169.299C50.9806 173.096 51.891 176.34 50.7167 177.574C50.4507 177.812 50.1228 177.971 49.7707 178.032C49.4185 178.093 49.0563 178.054 48.7254 177.919C47.613 177.622 46.8576 177.684 46.4813 178.105C45.897 178.756 46.0754 180.406 46.9835 182.751C47.2685 183.492 47.3451 184.297 47.2053 185.079C47.0655 185.861 46.7144 186.59 46.1902 187.186C45.7955 187.652 45.3045 188.026 44.7511 188.284C44.1978 188.541 43.5951 188.676 42.9847 188.678Z" fill="#2F2E41"/>
<path d="M106.953 450.523H0.758532C0.557357 450.523 0.364409 450.443 0.222157 450.301C0.0799044 450.159 0 449.966 0 449.765C0 449.564 0.0799044 449.371 0.222157 449.229C0.364409 449.086 0.557357 449.006 0.758532 449.006H106.953C107.154 449.006 107.347 449.086 107.489 449.229C107.632 449.371 107.712 449.564 107.712 449.765C107.712 449.966 107.632 450.159 107.489 450.301C107.347 450.443 107.154 450.523 106.953 450.523Z" fill="#CCCCCC"/>
<path d="M477.117 450.523H370.922C370.721 450.523 370.528 450.443 370.386 450.301C370.244 450.159 370.164 449.966 370.164 449.765C370.164 449.564 370.244 449.371 370.386 449.229C370.528 449.086 370.721 449.006 370.922 449.006H477.117C477.318 449.006 477.511 449.086 477.653 449.229C477.795 449.371 477.875 449.564 477.875 449.765C477.875 449.966 477.795 450.159 477.653 450.301C477.511 450.443 477.318 450.523 477.117 450.523Z" fill="#CCCCCC"/>
<path d="M325.192 321.618H141.627C134.589 321.61 127.841 318.81 122.864 313.833C117.886 308.856 115.087 302.108 115.079 295.069V26.5486C115.087 19.5099 117.886 12.7618 122.864 7.78474C127.841 2.80763 134.589 0.00798836 141.627 0H325.192C332.231 0.00798836 338.979 2.80763 343.956 7.78474C348.933 12.7618 351.733 19.5099 351.741 26.5486V295.069C351.733 302.108 348.933 308.856 343.956 313.833C338.979 318.81 332.231 321.61 325.192 321.618Z" fill="white"/>
<path d="M296.368 213.17H170.452C157.59 213.108 157.536 193.515 170.453 193.448L296.368 193.448C309.222 193.508 309.291 213.103 296.368 213.17Z" fill="#CCCCCC"/>
<path d="M296.368 55.3505H170.452C157.59 55.2885 157.536 35.6958 170.453 35.6287L296.368 35.6287C309.222 35.6889 309.291 55.2831 296.368 55.3505Z" fill="#CCCCCC"/>
<path d="M296.368 249.58H170.452C157.59 249.518 157.536 229.925 170.453 229.858L296.368 229.858C309.222 229.918 309.291 249.512 296.368 249.58Z" fill="#CCCCCC"/>
<path d="M296.368 285.989H170.452C157.59 285.927 157.536 266.334 170.453 266.267L296.368 266.267C309.222 266.327 309.291 285.922 296.368 285.989Z" fill="#CCCCCC"/>
<path d="M294.092 169.782H172.727C169.409 169.778 166.228 168.458 163.881 166.112C161.535 163.765 160.215 160.584 160.212 157.266V89.3017C160.215 85.9834 161.535 82.8022 163.881 80.4558C166.228 78.1095 169.409 76.7896 172.727 76.7859H294.092C297.411 76.7896 300.592 78.1095 302.938 80.4558C305.285 82.8022 306.605 85.9834 306.608 89.3017V157.266C306.605 160.584 305.285 163.765 302.938 166.112C300.592 168.458 297.411 169.778 294.092 169.782Z" fill="url(#paint0_linear_129_1250)"/>
<path d="M325.192 321.618H141.627C134.589 321.61 127.841 318.81 122.864 313.833C117.886 308.856 115.087 302.108 115.079 295.069V26.5486C115.087 19.5099 117.886 12.7618 122.864 7.78474C127.841 2.80763 134.589 0.00798836 141.627 0H325.192C332.231 0.00798836 338.979 2.80763 343.956 7.78474C348.933 12.7618 351.733 19.5099 351.741 26.5486V295.069C351.733 302.108 348.933 308.856 343.956 313.833C338.979 318.81 332.231 321.61 325.192 321.618ZM141.627 4.55119C135.795 4.55779 130.204 6.87749 126.08 11.0014C121.956 15.1253 119.637 20.7166 119.63 26.5486V295.069C119.637 300.901 121.956 306.492 126.08 310.616C130.204 314.74 135.795 317.06 141.627 317.066H325.192C331.024 317.06 336.616 314.74 340.74 310.616C344.863 306.492 347.183 300.901 347.19 295.069V26.5486C347.183 20.7166 344.863 15.1252 340.74 11.0014C336.616 6.87746 331.024 4.55777 325.192 4.55119H141.627Z" fill="#3F3D56"/>
</g>
<defs>
<linearGradient id="paint0_linear_129_1250" x1="233.41" y1="76.7859" x2="233.41" y2="169.782" gradientUnits="userSpaceOnUse">
<stop stop-color="#A0F2A7"/>
<stop offset="1" stop-color="#D2F89E"/>
</linearGradient>
<clipPath id="clip0_129_1250">
<rect width="479" height="450.523" fill="white"/>
</clipPath>
</defs>
</svg>
