<svg width="630" height="400" viewBox="0 0 630 400" fill="none" xmlns="http://www.w3.org/2000/svg">
<g clip-path="url(#clip0_129_1343)">
<path d="M604.196 387.427C601.386 391.221 597.903 394.463 593.92 396.993C593.073 397.531 592.204 398.039 591.319 398.508H570.503C570.753 398.008 570.995 397.501 571.229 396.993C577.683 383.35 579.707 368.024 577.016 353.168C574.326 338.313 567.055 324.676 556.228 314.174C568.81 318.068 580.439 325.657 588.045 336.42C591.741 341.662 594.37 347.582 595.78 353.842C597.037 341.323 595.04 328.691 589.981 317.174C600.196 325.498 608.151 336.898 611.183 349.729C614.214 362.567 612.014 376.815 604.196 387.427Z" fill="#95C75B"/>
<path d="M441.25 12.113H0.18811V221.77H441.25V12.113Z" fill="#E6E6E6"/>
<path d="M428.638 30.0916H12.8004V205.015H428.638V30.0916Z" fill="white"/>
<path d="M441.062 0H0V18.7704H441.062V0Z" fill="#A0F2A7"/>
<path d="M13.9244 12.1612C15.8424 12.1612 17.3973 10.6036 17.3973 8.68215C17.3973 6.76074 15.8424 5.20312 13.9244 5.20312C12.0063 5.20312 10.4514 6.76074 10.4514 8.68215C10.4514 10.6036 12.0063 12.1612 13.9244 12.1612Z" fill="white"/>
<path d="M27.1065 12.1612C29.0245 12.1612 30.5794 10.6036 30.5794 8.68215C30.5794 6.76074 29.0245 5.20312 27.1065 5.20312C25.1884 5.20312 23.6335 6.76074 23.6335 8.68215C23.6335 10.6036 25.1884 12.1612 27.1065 12.1612Z" fill="white"/>
<path d="M40.2894 12.1612C42.2074 12.1612 43.7623 10.6036 43.7623 8.68215C43.7623 6.76074 42.2074 5.20312 40.2894 5.20312C38.3713 5.20312 36.8164 6.76074 36.8164 8.68215C36.8164 10.6036 38.3713 12.1612 40.2894 12.1612Z" fill="white"/>
<path d="M327.041 66.6223H114.741C113.192 66.6223 111.706 67.2387 110.611 68.3358C109.516 69.4329 108.901 70.9209 108.901 72.4725C108.901 74.0241 109.516 75.5121 110.611 76.6092C111.706 77.7064 113.192 78.3227 114.741 78.3227H327.041C328.59 78.3227 330.076 77.7064 331.171 76.6092C332.266 75.5121 332.881 74.0241 332.881 72.4725C332.881 70.9209 332.266 69.4329 331.171 68.3358C330.076 67.2387 328.59 66.6223 327.041 66.6223Z" fill="#E4E4E4"/>
<path d="M327.041 111.703H114.741C113.192 111.703 111.706 112.32 110.611 113.417C109.516 114.514 108.901 116.002 108.901 117.554C108.901 119.105 109.516 120.593 110.611 121.69C111.706 122.787 113.192 123.404 114.741 123.404H327.041C328.589 123.402 330.073 122.785 331.166 121.688C332.26 120.591 332.875 119.104 332.875 117.554C332.875 116.003 332.26 114.516 331.166 113.419C330.073 112.322 328.589 111.705 327.041 111.703Z" fill="#E4E4E4"/>
<path d="M327.041 156.784H114.741C113.192 156.784 111.706 157.401 110.611 158.498C109.516 159.595 108.901 161.083 108.901 162.634C108.901 164.186 109.516 165.674 110.611 166.771C111.706 167.868 113.192 168.485 114.741 168.485H327.041C328.59 168.485 330.076 167.868 331.171 166.771C332.266 165.674 332.881 164.186 332.881 162.634C332.881 161.083 332.266 159.595 331.171 158.498C330.076 157.401 328.59 156.784 327.041 156.784Z" fill="#E4E4E4"/>
<path d="M225.013 78.667H114.944C113.35 78.6901 111.806 78.107 110.623 77.0353C109.441 75.9636 108.707 74.4827 108.571 72.8911C108.511 72.0435 108.627 71.1927 108.912 70.3924C109.197 69.5921 109.645 68.8598 110.227 68.2416C110.806 67.6233 111.505 67.1302 112.281 66.7926C113.057 66.455 113.894 66.2799 114.741 66.2783H212.99C216.178 66.2819 219.234 67.5521 221.488 69.8101C223.742 72.0681 225.01 75.1295 225.013 78.3228V78.667Z" fill="#A0F2A7"/>
<path d="M282.039 123.748H114.944C113.35 123.771 111.806 123.188 110.623 122.116C109.441 121.044 108.707 119.564 108.571 117.972C108.511 117.124 108.627 116.274 108.912 115.473C109.197 114.673 109.645 113.941 110.227 113.322C110.806 112.704 111.505 112.211 112.281 111.873C113.057 111.536 113.894 111.361 114.741 111.359H270.016C273.203 111.363 276.26 112.633 278.514 114.891C280.768 117.149 282.036 120.21 282.039 123.404V123.748Z" fill="#A0F2A7"/>
<path d="M258.679 168.829H114.944C113.35 168.852 111.806 168.269 110.623 167.197C109.441 166.125 108.707 164.645 108.571 163.053C108.511 162.205 108.627 161.355 108.912 160.554C109.197 159.754 109.645 159.022 110.227 158.403C110.806 157.785 111.505 157.292 112.281 156.954C113.057 156.617 113.894 156.442 114.741 156.44H246.656C249.843 156.444 252.9 157.714 255.154 159.972C257.408 162.23 258.676 165.291 258.679 168.485V168.829Z" fill="#A0F2A7"/>
<path d="M436.927 170.59C437.397 171.488 438.057 172.273 438.862 172.888C439.667 173.503 440.596 173.934 441.586 174.15C442.575 174.367 443.599 174.363 444.587 174.14C445.574 173.917 446.501 173.479 447.301 172.859L467.912 186.329L467.849 173.519L448.287 162.691C447.157 161.413 445.598 160.594 443.905 160.391C442.213 160.187 440.505 160.612 439.105 161.586C437.704 162.56 436.709 164.014 436.308 165.673C435.907 167.333 436.127 169.082 436.927 170.59Z" fill="#FFB6B6"/>
<path d="M540.355 389.603H531.513L527.305 355.437L540.356 355.437L540.355 389.603Z" fill="#FFB6B6"/>
<path d="M542.61 398.189L514.098 398.188V397.827C514.098 394.878 515.268 392.051 517.349 389.966C519.43 387.881 522.252 386.71 525.196 386.71L542.61 386.711L542.61 398.189Z" fill="#2F2E41"/>
<path d="M496.608 389.603H487.766L483.56 355.437L496.61 355.437L496.608 389.603Z" fill="#FFB6B6"/>
<path d="M498.864 398.189L470.352 398.188V397.827C470.352 394.878 471.522 392.051 473.603 389.966C475.684 387.881 478.507 386.71 481.45 386.71L498.864 386.711L498.864 398.189Z" fill="#2F2E41"/>
<path d="M486.402 215.258L477.591 303.333L481.997 379.355H499.03L502.473 307.844L515.869 268.741L523.667 329.001V378.065L543.045 378.963L549.476 258.833C549.476 258.833 551.66 225.232 547.301 221.115C542.942 216.998 486.402 215.258 486.402 215.258Z" fill="#2F2E41"/>
<path d="M561.527 135.786L543.72 129.07L540.586 122.704L518.198 123.03L513.126 128.135L495.693 133.855L484.608 218.924C484.608 218.924 518.727 243.351 549.013 226.474L561.527 135.786Z" fill="#3F3D56"/>
<path d="M452.536 178.812L481.838 196.069L506.254 163.353V142.832C506.256 140.935 505.696 139.081 504.645 137.503C503.677 136.045 502.329 134.879 500.747 134.132C499.166 133.385 497.411 133.085 495.672 133.264C493.932 133.443 492.275 134.094 490.878 135.147C489.481 136.2 488.398 137.616 487.745 139.241L475.065 170.801L457.08 165.478L452.536 178.812Z" fill="#3F3D56"/>
<path d="M537.684 224.835C537.863 223.837 538.257 222.89 538.841 222.061C539.424 221.232 540.181 220.541 541.06 220.037C541.938 219.533 542.916 219.228 543.925 219.144C544.934 219.059 545.949 219.197 546.899 219.549L562.518 200.498L566.3 212.735L550.888 228.95C550.194 230.509 548.952 231.759 547.399 232.463C545.846 233.166 544.089 233.275 542.462 232.767C540.834 232.26 539.449 231.173 538.569 229.711C537.688 228.249 537.373 226.514 537.684 224.835Z" fill="#FFB6B6"/>
<path d="M560.98 221.835L551.111 211.948L567.41 182.691L543.77 156.147L545.135 145.438C545.449 142.973 546.435 140.642 547.984 138.701C549.331 137.013 551.062 135.673 553.032 134.792C555.002 133.912 557.154 133.517 559.308 133.64C561.462 133.764 563.555 134.402 565.412 135.501C567.269 136.601 568.837 138.13 569.983 139.961L588.467 181.132L588.374 181.269L560.98 221.835Z" fill="#3F3D56"/>
<path d="M545.785 100.603C545.102 105.596 542.468 110.114 538.461 113.163C534.455 116.212 529.404 117.542 524.418 116.863C519.433 116.183 514.921 113.548 511.874 109.538C508.826 105.527 507.493 100.469 508.167 95.474L508.204 95.2041C508.99 90.2765 511.679 85.8561 515.69 82.8964C519.7 79.9367 524.712 78.6749 529.643 79.3833C534.574 80.0917 539.029 82.7134 542.048 86.6829C545.066 90.6524 546.407 95.6515 545.779 100.602L545.785 100.603Z" fill="#FFB6B6"/>
<path d="M540.954 110.397C541.928 108.414 542.93 106.284 542.656 104.09C542.382 101.896 540.234 99.7992 538.125 100.451C536.864 100.841 535.911 102.089 534.593 102.152C532.779 102.24 531.739 100.161 531.174 98.4318L528.875 91.3901C526.667 93.114 524.106 94.3283 521.376 94.9464C518.645 95.5645 515.812 95.5711 513.079 94.9659C510.944 94.4769 508.787 93.5236 507.535 91.7239C506.282 89.9241 506.29 87.1324 508.008 85.7715C508.85 85.1042 509.971 84.8507 510.776 84.1387C511.275 83.6969 511.619 83.1059 511.757 82.4531C511.895 81.8003 511.819 81.1203 511.542 80.5138C511.264 79.9073 510.798 79.4065 510.214 79.0856C509.63 78.7646 508.959 78.6405 508.299 78.7316L514.089 78.0067L512.364 74.8814C513.019 75.3285 513.761 75.6334 514.541 75.7768C515.321 75.9202 516.123 75.8988 516.894 75.714C518.452 75.4331 519.919 74.7906 521.442 74.3621C525.136 73.4173 529.037 73.706 532.551 75.1845C536.066 76.663 539.003 79.2505 540.916 82.5537C542.341 82.0771 543.876 82.0454 545.319 82.4628C546.762 82.8803 548.045 83.7271 548.997 84.891C550.546 86.8616 550.968 89.4912 551.028 91.9992C551.141 96.9442 550.064 101.844 547.89 106.285C547.266 107.695 546.37 108.968 545.254 110.031C544.691 110.558 544.021 110.955 543.289 111.194C542.558 111.434 541.782 111.511 541.018 111.418" fill="#2F2E41"/>
<path d="M628.846 400H148.369C148.108 400.005 147.852 399.924 147.641 399.769C147.431 399.614 147.278 399.393 147.205 399.141C147.16 398.97 147.155 398.791 147.19 398.617C147.225 398.443 147.299 398.28 147.407 398.139C147.515 397.999 147.654 397.885 147.812 397.807C147.971 397.729 148.146 397.688 148.322 397.688H628.751C629.027 397.678 629.298 397.762 629.52 397.926C629.742 398.091 629.902 398.325 629.973 398.592C630.011 398.761 630.01 398.936 629.971 399.105C629.931 399.274 629.855 399.432 629.747 399.567C629.638 399.702 629.501 399.811 629.345 399.886C629.19 399.961 629.019 400 628.846 400Z" fill="#CCCCCC"/>
</g>
<defs>
<clipPath id="clip0_129_1343">
<rect width="630" height="400" fill="white"/>
</clipPath>
</defs>
</svg>
